<?xml version="1.0" encoding="utf-8"?>
<!DOCTYPE svg PUBLIC "-//W3C//DTD SVG 1.1//EN" "http://www.w3.org/Graphics/SVG/1.1/DTD/svg11.dtd">
<svg version="1.1" id="bayer_cross" xmlns="http://www.w3.org/2000/svg" xmlns:xlink="http://www.w3.org/1999/xlink" x="0px"
	 y="0px" width="287px" height="287px" viewBox="0 0 287 287" enable-background="new 0 0 287 287"
	 xml:space="preserve">
<g>
	<path fill="#FFFFFF" d="M134.607,43.654h16.482c1.818,0,3.3-1.478,3.3-3.299c0-1.815-1.481-3.298-3.3-3.298h-16.482V43.654z
		 M134.607,59.671h16.969c2.078,0,3.758-1.687,3.758-3.773c0-2.081-1.678-3.767-3.757-3.767h-16.97V59.671z M161.111,47.534
		c2.239,2.182,3.631,5.23,3.631,8.606c0,6.622-5.372,12.004-11.996,12.014h-27.562V28.573l27.108,0.002
		c6.363,0.011,11.517,5.177,11.517,11.542C163.81,42.94,162.793,45.527,161.111,47.534z"/>
	<path fill="#FFFFFF" d="M167.45,115.285h-10.115l-3.185-6.597H132.01l-3.189,6.597h-10.111l19.783-39.564h9.171L167.45,115.285z
		 M143.08,85.843l-6.95,14.373h13.896L143.08,85.843z"/>
	<polygon fill="#FFFFFF" points="156.52,123.768 167.857,123.768 147.792,149.53 147.792,163.332 138.368,163.332 138.368,149.53 
		118.307,123.768 129.641,123.768 143.082,141.785 	"/>
	<polygon fill="#FFFFFF" points="209.267,123.768 209.267,132.249 182.888,132.249 182.888,138.844 208.323,138.84 208.323,147.317 
		182.888,147.317 182.888,154.855 209.267,154.855 209.267,163.332 173.467,163.332 173.467,123.768 	"/>
	<path fill="#FFFFFF" d="M238.945,148.262h-7.068v15.069h-9.42v-39.563h24.063c6.747,0.022,12.213,5.501,12.213,12.258
		c0,5.578-3.688,10.276-8.79,11.758l11.61,15.548h-11.307L238.945,148.262z M245.561,132.249h-13.684v7.536h13.684
		c2.07-0.013,3.743-1.699,3.743-3.767C249.304,133.945,247.631,132.261,245.561,132.249z"/>
	<path fill="#FFFFFF" d="M122.703,163.332h-10.116l-3.185-6.596H87.262l-3.189,6.596H73.961l19.783-39.563h9.172L122.703,163.332z
		 M98.332,133.89l-6.951,14.372h13.898L98.332,133.89z"/>
	<path fill="#FFFFFF" d="M38.579,138.868h16.481c1.82,0,3.3-1.478,3.3-3.298c0-1.816-1.479-3.298-3.3-3.298l-16.481-0.001V138.868z
		 M38.579,154.883h16.968c2.08,0,3.758-1.687,3.758-3.772c0-2.081-1.677-3.768-3.757-3.768H38.579V154.883z M65.082,142.748
		c2.239,2.181,3.631,5.23,3.631,8.605c0,6.623-5.371,12.005-11.995,12.015H29.155v-39.58l27.109,0.001
		c6.363,0.013,11.517,5.177,11.517,11.542C67.781,138.155,66.765,140.742,65.082,142.748z"/>
	<polygon fill="#FFFFFF" points="160.983,171.812 160.983,180.292 134.604,180.292 134.604,186.888 160.039,186.884 
		160.039,195.361 134.604,195.361 134.604,202.9 160.983,202.9 160.983,211.376 125.185,211.376 125.185,171.812 	"/>
	<path fill="#FFFFFF" d="M154.369,233.058c0-2.075-1.668-3.754-3.734-3.774h-16.031v7.533h16.031
		C152.702,236.795,154.369,235.117,154.369,233.058z M125.184,260.369V220.8h26.427c6.732,0.047,12.175,5.52,12.175,12.267
		c0,5.13-3.149,9.528-7.619,11.36l11.885,15.941H156.74L145.434,245.3h-10.83v15.068H125.184z"/>
	<path fill-rule="evenodd" clip-rule="evenodd" fill="#FFFFFF" d="M14.548,143.15c0-71.026,57.576-128.601,128.603-128.601
		c71.024,0,128.602,57.575,128.602,128.601c0,71.025-57.577,128.6-128.602,128.6C72.124,271.75,14.548,214.175,14.548,143.15z
		 M284.883,143.144c0,78.277-63.457,141.738-141.732,141.738c-78.281,0-141.733-63.461-141.733-141.738
		c0-78.27,63.452-141.727,141.733-141.727C221.426,1.417,284.883,64.875,284.883,143.144z"/>
</g>
</svg>
